<svg xmlns="http://www.w3.org/2000/svg" xmlns:xlink="http://www.w3.org/1999/xlink" width="100" zoomAndPan="magnify" viewBox="0 0 75 30.000001" height="40" preserveAspectRatio="xMidYMid meet" version="1.0"><defs><g/><clipPath id="6fa9ac5abc"><path d="M 10 3.507812 L 13 3.507812 L 13 6 L 10 6 Z M 10 3.507812 " clip-rule="nonzero"/></clipPath><clipPath id="e91a7bbc18"><path d="M 10 23 L 13 23 L 13 24.554688 L 10 24.554688 Z M 10 23 " clip-rule="nonzero"/></clipPath><clipPath id="2e7ec0b437"><path d="M 20 13 L 22.257812 13 L 22.257812 15 L 20 15 Z M 20 13 " clip-rule="nonzero"/></clipPath><clipPath id="a12633d82c"><path d="M 1.210938 13 L 3 13 L 3 15 L 1.210938 15 Z M 1.210938 13 " clip-rule="nonzero"/></clipPath><clipPath id="5b3fa0e013"><path d="M 1.210938 16 L 4 16 L 4 19 L 1.210938 19 Z M 1.210938 16 " clip-rule="nonzero"/></clipPath></defs><path fill="#01297f" d="M 15.121094 16.214844 C 15.503906 15.789062 15.503906 15.15625 15.152344 14.730469 C 15.5625 14.199219 15.894531 13.636719 16.136719 13.046875 C 16.441406 12.300781 16.613281 11.511719 16.644531 10.703125 C 16.675781 9.78125 16.523438 9.050781 16.414062 8.652344 C 16.667969 8.386719 16.726562 7.980469 16.535156 7.648438 C 16.300781 7.246094 15.785156 7.105469 15.382812 7.339844 C 14.980469 7.574219 14.839844 8.089844 15.074219 8.492188 C 15.292969 8.871094 15.765625 9.015625 16.160156 8.835938 C 16.257812 9.234375 16.382812 9.898438 16.351562 10.703125 C 16.332031 11.101562 16.277344 11.566406 16.148438 12.066406 C 16.101562 11.925781 16.042969 11.789062 15.984375 11.652344 C 15.6875 10.992188 15.324219 10.53125 15.109375 10.292969 C 15.195312 10.019531 15.09375 9.710938 14.84375 9.546875 C 14.539062 9.34375 14.128906 9.425781 13.925781 9.730469 C 13.722656 10.035156 13.808594 10.445312 14.109375 10.648438 C 14.398438 10.839844 14.78125 10.773438 14.992188 10.511719 C 15.203125 10.753906 15.519531 11.179688 15.777344 11.757812 C 15.871094 11.960938 15.960938 12.199219 16.035156 12.464844 C 15.820312 13.117188 15.476562 13.824219 14.9375 14.527344 C 14.472656 14.1875 13.8125 14.253906 13.421875 14.691406 C 13 15.160156 13.042969 15.882812 13.511719 16.304688 C 13.980469 16.722656 14.703125 16.683594 15.121094 16.214844 " fill-opacity="1" fill-rule="nonzero"/><path fill="#00adef" d="M 11.539062 18.058594 C 12.097656 18.175781 12.644531 17.859375 12.839844 17.34375 C 13.503906 17.433594 14.15625 17.433594 14.789062 17.351562 C 15.585938 17.242188 16.355469 16.996094 17.074219 16.617188 C 17.886719 16.1875 18.445312 15.691406 18.734375 15.394531 C 19.085938 15.480469 19.472656 15.328125 19.664062 14.996094 C 19.894531 14.59375 19.757812 14.078125 19.355469 13.84375 C 18.949219 13.613281 18.433594 13.75 18.203125 14.152344 C 17.980469 14.535156 18.09375 15.015625 18.445312 15.265625 C 18.152344 15.550781 17.640625 15.988281 16.925781 16.363281 C 16.570312 16.550781 16.140625 16.734375 15.644531 16.871094 C 15.738281 16.761719 15.832031 16.644531 15.917969 16.523438 C 16.339844 15.9375 16.558594 15.390625 16.660156 15.085938 C 16.9375 15.023438 17.15625 14.78125 17.175781 14.480469 C 17.195312 14.117188 16.921875 13.804688 16.554688 13.78125 C 16.191406 13.757812 15.878906 14.035156 15.855469 14.398438 C 15.832031 14.742188 16.078125 15.042969 16.414062 15.09375 C 16.304688 15.394531 16.097656 15.882812 15.726562 16.394531 C 15.59375 16.578125 15.433594 16.773438 15.242188 16.972656 C 14.566406 17.113281 13.785156 17.167969 12.90625 17.054688 C 12.964844 16.480469 12.582031 15.945312 12.003906 15.824219 C 11.390625 15.695312 10.785156 16.089844 10.65625 16.707031 C 10.527344 17.324219 10.921875 17.929688 11.539062 18.058594 " fill-opacity="1" fill-rule="nonzero"/><path fill="#01297f" d="M 8.148438 15.875 C 8.328125 16.417969 8.875 16.738281 9.421875 16.644531 C 9.675781 17.265625 9.996094 17.832031 10.386719 18.335938 C 10.878906 18.972656 11.476562 19.515625 12.164062 19.949219 C 12.941406 20.4375 13.652344 20.671875 14.050781 20.773438 C 14.15625 21.125 14.480469 21.382812 14.863281 21.382812 C 15.328125 21.382812 15.707031 21.003906 15.707031 20.539062 C 15.707031 20.070312 15.328125 19.695312 14.863281 19.695312 C 14.421875 19.695312 14.058594 20.03125 14.023438 20.460938 C 13.628906 20.351562 12.992188 20.125 12.308594 19.695312 C 11.96875 19.480469 11.597656 19.199219 11.226562 18.839844 C 11.375 18.867188 11.519531 18.886719 11.667969 18.902344 C 12.386719 18.972656 12.96875 18.890625 13.285156 18.824219 C 13.480469 19.035156 13.796875 19.101562 14.0625 18.96875 C 14.390625 18.804688 14.527344 18.410156 14.363281 18.082031 C 14.199219 17.753906 13.804688 17.621094 13.476562 17.78125 C 13.167969 17.9375 13.03125 18.300781 13.15625 18.613281 C 12.839844 18.675781 12.3125 18.738281 11.683594 18.671875 C 11.457031 18.648438 11.207031 18.609375 10.941406 18.539062 C 10.480469 18.027344 10.042969 17.378906 9.703125 16.558594 C 10.230469 16.324219 10.503906 15.722656 10.316406 15.164062 C 10.121094 14.5625 9.476562 14.238281 8.878906 14.433594 C 8.277344 14.632812 7.953125 15.277344 8.148438 15.875 " fill-opacity="1" fill-rule="nonzero"/><path fill="#00adef" d="M 8.34375 11.851562 C 7.964844 12.277344 7.960938 12.90625 8.3125 13.335938 C 7.902344 13.863281 7.574219 14.429688 7.332031 15.019531 C 7.027344 15.761719 6.855469 16.550781 6.824219 17.363281 C 6.789062 18.28125 6.941406 19.015625 7.054688 19.410156 C 6.800781 19.675781 6.742188 20.082031 6.933594 20.414062 C 7.167969 20.820312 7.683594 20.957031 8.085938 20.722656 C 8.488281 20.492188 8.628906 19.976562 8.394531 19.570312 C 8.175781 19.191406 7.699219 19.046875 7.308594 19.230469 C 7.207031 18.832031 7.085938 18.167969 7.117188 17.359375 C 7.132812 16.960938 7.191406 16.496094 7.320312 15.996094 C 7.367188 16.136719 7.421875 16.273438 7.484375 16.410156 C 7.78125 17.070312 8.144531 17.53125 8.359375 17.769531 C 8.273438 18.042969 8.375 18.351562 8.625 18.519531 C 8.929688 18.71875 9.339844 18.636719 9.542969 18.332031 C 9.742188 18.03125 9.660156 17.617188 9.355469 17.417969 C 9.070312 17.226562 8.6875 17.289062 8.476562 17.554688 C 8.265625 17.308594 7.949219 16.886719 7.691406 16.308594 C 7.597656 16.101562 7.507812 15.863281 7.433594 15.597656 C 7.648438 14.945312 7.988281 14.242188 8.527344 13.535156 C 8.996094 13.875 9.652344 13.8125 10.046875 13.371094 C 10.464844 12.902344 10.425781 12.179688 9.957031 11.761719 C 9.488281 11.339844 8.765625 11.378906 8.34375 11.851562 " fill-opacity="1" fill-rule="nonzero"/><path fill="#01297f" d="M 11.929688 10.007812 C 11.371094 9.890625 10.820312 10.203125 10.628906 10.722656 C 9.964844 10.632812 9.3125 10.628906 8.679688 10.714844 C 7.882812 10.820312 7.113281 11.066406 6.394531 11.445312 C 5.582031 11.875 5.023438 12.375 4.734375 12.667969 C 4.378906 12.582031 3.996094 12.734375 3.804688 13.066406 C 3.574219 13.46875 3.710938 13.984375 4.113281 14.21875 C 4.515625 14.453125 5.03125 14.3125 5.265625 13.910156 C 5.484375 13.527344 5.375 13.046875 5.019531 12.796875 C 5.316406 12.511719 5.828125 12.074219 6.542969 11.699219 C 6.898438 11.511719 7.324219 11.328125 7.824219 11.191406 C 7.726562 11.304688 7.636719 11.421875 7.546875 11.542969 C 7.125 12.128906 6.910156 12.671875 6.808594 12.980469 C 6.527344 13.042969 6.3125 13.28125 6.292969 13.582031 C 6.269531 13.945312 6.546875 14.261719 6.910156 14.285156 C 7.277344 14.308594 7.589844 14.03125 7.613281 13.664062 C 7.636719 13.320312 7.390625 13.023438 7.054688 12.96875 C 7.160156 12.667969 7.371094 12.179688 7.742188 11.667969 C 7.875 11.484375 8.035156 11.289062 8.226562 11.09375 C 8.898438 10.949219 9.679688 10.894531 10.558594 11.007812 C 10.5 11.582031 10.882812 12.121094 11.460938 12.242188 C 12.078125 12.367188 12.683594 11.972656 12.8125 11.355469 C 12.941406 10.738281 12.546875 10.136719 11.929688 10.007812 " fill-opacity="1" fill-rule="nonzero"/><path fill="#00adef" d="M 15.316406 12.1875 C 15.140625 11.644531 14.59375 11.328125 14.046875 11.417969 C 13.792969 10.796875 13.46875 10.230469 13.082031 9.726562 C 12.589844 9.089844 11.992188 8.546875 11.304688 8.117188 C 10.523438 7.625 9.816406 7.390625 9.414062 7.289062 C 9.3125 6.9375 8.988281 6.683594 8.605469 6.683594 C 8.140625 6.683594 7.761719 7.058594 7.761719 7.527344 C 7.761719 7.992188 8.140625 8.371094 8.605469 8.371094 C 9.046875 8.371094 9.40625 8.03125 9.445312 7.601562 C 9.839844 7.710938 10.476562 7.9375 11.160156 8.371094 C 11.496094 8.582031 11.871094 8.863281 12.238281 9.226562 C 12.09375 9.199219 11.945312 9.175781 11.796875 9.160156 C 11.078125 9.089844 10.5 9.171875 10.183594 9.238281 C 9.988281 9.027344 9.671875 8.960938 9.402344 9.09375 C 9.074219 9.257812 8.941406 9.65625 9.105469 9.980469 C 9.265625 10.308594 9.664062 10.441406 9.992188 10.28125 C 10.300781 10.128906 10.4375 9.765625 10.3125 9.449219 C 10.628906 9.390625 11.15625 9.328125 11.785156 9.390625 C 12.011719 9.414062 12.257812 9.457031 12.527344 9.523438 C 12.984375 10.035156 13.425781 10.683594 13.765625 11.503906 C 13.238281 11.738281 12.964844 12.339844 13.148438 12.902344 C 13.347656 13.5 13.992188 13.824219 14.589844 13.628906 C 15.1875 13.429688 15.515625 12.785156 15.316406 12.1875 " fill-opacity="1" fill-rule="nonzero"/><g clip-path="url(#6fa9ac5abc)"><path fill="#01297f" d="M 12.5 4.273438 C 12.5 4.695312 12.15625 5.039062 11.734375 5.039062 C 11.3125 5.039062 10.96875 4.695312 10.96875 4.273438 C 10.96875 3.851562 11.3125 3.507812 11.734375 3.507812 C 12.15625 3.507812 12.5 3.851562 12.5 4.273438 " fill-opacity="1" fill-rule="nonzero"/></g><g clip-path="url(#e91a7bbc18)"><path fill="#01297f" d="M 12.5 23.789062 C 12.5 24.214844 12.15625 24.554688 11.734375 24.554688 C 11.3125 24.554688 10.96875 24.214844 10.96875 23.789062 C 10.96875 23.367188 11.3125 23.023438 11.734375 23.023438 C 12.15625 23.023438 12.5 23.367188 12.5 23.789062 " fill-opacity="1" fill-rule="nonzero"/></g><g clip-path="url(#2e7ec0b437)"><path fill="#01297f" d="M 21.492188 14.796875 C 21.070312 14.796875 20.726562 14.453125 20.726562 14.03125 C 20.726562 13.609375 21.070312 13.265625 21.492188 13.265625 C 21.914062 13.265625 22.257812 13.609375 22.257812 14.03125 C 22.257812 14.453125 21.914062 14.796875 21.492188 14.796875 " fill-opacity="1" fill-rule="nonzero"/></g><g clip-path="url(#a12633d82c)"><path fill="#01297f" d="M 1.976562 14.796875 C 1.550781 14.796875 1.210938 14.453125 1.210938 14.03125 C 1.210938 13.609375 1.550781 13.265625 1.976562 13.265625 C 2.398438 13.265625 2.742188 13.609375 2.742188 14.03125 C 2.742188 14.453125 2.398438 14.796875 1.976562 14.796875 " fill-opacity="1" fill-rule="nonzero"/></g><path fill="#01297f" d="M 19.175781 7.671875 C 18.875 7.972656 18.390625 7.972656 18.09375 7.671875 C 17.792969 7.375 17.792969 6.890625 18.09375 6.589844 C 18.390625 6.289062 18.875 6.289062 19.175781 6.589844 C 19.476562 6.890625 19.476562 7.375 19.175781 7.671875 " fill-opacity="1" fill-rule="nonzero"/><path fill="#01297f" d="M 5.375 21.472656 C 5.078125 21.773438 4.589844 21.773438 4.292969 21.472656 C 3.992188 21.175781 3.992188 20.6875 4.292969 20.390625 C 4.589844 20.089844 5.078125 20.089844 5.375 20.390625 C 5.675781 20.6875 5.675781 21.175781 5.375 21.472656 " fill-opacity="1" fill-rule="nonzero"/><path fill="#01297f" d="M 18.09375 21.472656 C 17.792969 21.175781 17.792969 20.6875 18.09375 20.390625 C 18.390625 20.089844 18.875 20.089844 19.175781 20.390625 C 19.476562 20.6875 19.476562 21.175781 19.175781 21.472656 C 18.875 21.773438 18.390625 21.773438 18.09375 21.472656 " fill-opacity="1" fill-rule="nonzero"/><path fill="#01297f" d="M 4.292969 7.671875 C 3.992188 7.375 3.992188 6.890625 4.292969 6.589844 C 4.589844 6.289062 5.078125 6.289062 5.375 6.589844 C 5.675781 6.890625 5.675781 7.375 5.375 7.671875 C 5.078125 7.972656 4.589844 7.972656 4.292969 7.671875 " fill-opacity="1" fill-rule="nonzero"/><path fill="#00adef" d="M 16.285156 5.367188 C 16.121094 5.753906 15.667969 5.9375 15.28125 5.769531 C 14.890625 5.601562 14.710938 5.152344 14.878906 4.761719 C 15.042969 4.375 15.496094 4.195312 15.882812 4.359375 C 16.273438 4.527344 16.453125 4.976562 16.285156 5.367188 " fill-opacity="1" fill-rule="nonzero"/><path fill="#00adef" d="M 8.589844 23.300781 C 8.421875 23.691406 7.972656 23.871094 7.582031 23.703125 C 7.195312 23.535156 7.015625 23.085938 7.179688 22.695312 C 7.347656 22.308594 7.800781 22.128906 8.1875 22.292969 C 8.578125 22.460938 8.757812 22.914062 8.589844 23.300781 " fill-opacity="1" fill-rule="nonzero"/><path fill="#00adef" d="M 20.398438 18.585938 C 20.011719 18.417969 19.828125 17.964844 19.996094 17.578125 C 20.164062 17.1875 20.613281 17.007812 21.003906 17.175781 C 21.390625 17.34375 21.570312 17.792969 21.40625 18.183594 C 21.238281 18.570312 20.789062 18.75 20.398438 18.585938 " fill-opacity="1" fill-rule="nonzero"/><path fill="#00adef" d="M 2.464844 10.886719 C 2.074219 10.722656 1.894531 10.269531 2.0625 9.882812 C 2.230469 9.492188 2.679688 9.3125 3.070312 9.480469 C 3.457031 9.644531 3.636719 10.097656 3.472656 10.484375 C 3.304688 10.875 2.851562 11.054688 2.464844 10.886719 " fill-opacity="1" fill-rule="nonzero"/><path fill="#00adef" d="M 21.078125 11.125 C 20.6875 11.28125 20.242188 11.089844 20.085938 10.695312 C 19.925781 10.304688 20.117188 9.859375 20.511719 9.699219 C 20.90625 9.542969 21.351562 9.734375 21.507812 10.128906 C 21.664062 10.519531 21.472656 10.964844 21.078125 11.125 " fill-opacity="1" fill-rule="nonzero"/><g clip-path="url(#5b3fa0e013)"><path fill="#00adef" d="M 2.957031 18.363281 C 2.5625 18.519531 2.117188 18.328125 1.960938 17.9375 C 1.804688 17.542969 1.996094 17.097656 2.386719 16.941406 C 2.78125 16.78125 3.226562 16.972656 3.382812 17.367188 C 3.539062 17.761719 3.347656 18.207031 2.957031 18.363281 " fill-opacity="1" fill-rule="nonzero"/></g><path fill="#00adef" d="M 12.316406 6.636719 C 12.316406 6.957031 12.054688 7.214844 11.734375 7.214844 C 11.414062 7.214844 11.152344 6.957031 11.152344 6.636719 C 11.152344 6.316406 11.414062 6.054688 11.734375 6.054688 C 12.054688 6.054688 12.316406 6.316406 12.316406 6.636719 " fill-opacity="1" fill-rule="nonzero"/><path fill="#00adef" d="M 12.316406 21.429688 C 12.316406 21.75 12.054688 22.007812 11.734375 22.007812 C 11.414062 22.007812 11.152344 21.75 11.152344 21.429688 C 11.152344 21.105469 11.414062 20.847656 11.734375 20.847656 C 12.054688 20.847656 12.316406 21.105469 12.316406 21.429688 " fill-opacity="1" fill-rule="nonzero"/><path fill="#00adef" d="M 16.554688 19.671875 C 16.324219 19.445312 16.324219 19.078125 16.554688 18.851562 C 16.78125 18.625 17.148438 18.625 17.375 18.851562 C 17.601562 19.078125 17.601562 19.445312 17.375 19.671875 C 17.148438 19.898438 16.78125 19.898438 16.554688 19.671875 " fill-opacity="1" fill-rule="nonzero"/><path fill="#00adef" d="M 6.09375 9.210938 C 5.867188 8.984375 5.867188 8.617188 6.09375 8.390625 C 6.320312 8.164062 6.6875 8.164062 6.914062 8.390625 C 7.140625 8.617188 7.140625 8.984375 6.914062 9.210938 C 6.6875 9.441406 6.320312 9.441406 6.09375 9.210938 " fill-opacity="1" fill-rule="nonzero"/><path fill="#00adef" d="M 18.816406 11.828125 C 18.519531 11.945312 18.183594 11.800781 18.0625 11.503906 C 17.945312 11.207031 18.089844 10.867188 18.386719 10.75 C 18.683594 10.628906 19.023438 10.773438 19.140625 11.074219 C 19.261719 11.371094 19.117188 11.707031 18.816406 11.828125 " fill-opacity="1" fill-rule="nonzero"/><path fill="#00adef" d="M 5.082031 17.316406 C 4.78125 17.433594 4.445312 17.289062 4.328125 16.992188 C 4.207031 16.691406 4.351562 16.355469 4.648438 16.234375 C 4.949219 16.117188 5.285156 16.261719 5.40625 16.558594 C 5.523438 16.859375 5.378906 17.195312 5.082031 17.316406 " fill-opacity="1" fill-rule="nonzero"/><path fill="#00adef" d="M 14.640625 23.378906 C 14.484375 22.984375 14.675781 22.539062 15.070312 22.382812 C 15.460938 22.226562 15.90625 22.417969 16.066406 22.808594 C 16.222656 23.203125 16.03125 23.648438 15.636719 23.804688 C 15.246094 23.960938 14.800781 23.769531 14.640625 23.378906 " fill-opacity="1" fill-rule="nonzero"/><path fill="#00adef" d="M 7.402344 5.253906 C 7.246094 4.859375 7.4375 4.414062 7.828125 4.257812 C 8.222656 4.101562 8.667969 4.292969 8.824219 4.6875 C 8.984375 5.078125 8.792969 5.523438 8.398438 5.679688 C 8.003906 5.839844 7.558594 5.648438 7.402344 5.253906 " fill-opacity="1" fill-rule="nonzero"/><g fill="#4169e1" fill-opacity="1"><g transform="translate(23.500268, 21.029402)"><g><path d="M 10.78125 0 L 8.21875 -4.265625 C 8.082031 -4.253906 7.863281 -4.25 7.5625 -4.25 L 4.21875 -4.25 L 4.21875 0 L 1.84375 0 L 1.84375 -14.09375 L 7.5625 -14.09375 C 9.363281 -14.09375 10.757812 -13.671875 11.75 -12.828125 C 12.75 -11.992188 13.25 -10.8125 13.25 -9.28125 C 13.25 -8.15625 12.992188 -7.203125 12.484375 -6.421875 C 11.984375 -5.640625 11.265625 -5.066406 10.328125 -4.703125 L 13.484375 0 Z M 4.21875 -6.375 L 7.5625 -6.375 C 9.84375 -6.375 10.984375 -7.320312 10.984375 -9.21875 C 10.984375 -11.039062 9.84375 -11.953125 7.5625 -11.953125 L 4.21875 -11.953125 Z M 4.21875 -6.375 "/></g></g></g><g fill="#4169e1" fill-opacity="1"><g transform="translate(39.07269, 21.029402)"><g><path d="M 16.34375 0 L 13.90625 0 L 10.5625 -10.984375 L 7.1875 0 L 4.734375 0 L 0.0625 -14.09375 L 2.609375 -14.09375 L 6.03125 -2.640625 L 9.4375 -14.0625 L 11.765625 -14.09375 L 15.1875 -2.640625 L 18.59375 -14.09375 L 21.046875 -14.09375 Z M 16.34375 0 "/></g></g></g><g fill="#4169e1" fill-opacity="1"><g transform="translate(60.942195, 21.029402)"><g><path d="M 11.46875 -11.953125 L 7 -11.953125 L 7 0 L 4.625 0 L 4.625 -11.953125 L 0.1875 -11.953125 L 0.1875 -14.09375 L 11.46875 -14.09375 Z M 11.46875 -11.953125 "/></g></g></g></svg>